<?xml version="1.0" standalone="no"?>
<!DOCTYPE svg PUBLIC "-//W3C//DTD SVG 20010904//EN"
 "http://www.w3.org/TR/2001/REC-SVG-20010904/DTD/svg10.dtd">
<svg version="1.0" xmlns="http://www.w3.org/2000/svg"
 width="1024.000000pt" height="1024.000000pt" viewBox="0 0 1024.000000 1024.000000"
 preserveAspectRatio="xMidYMid meet">

<g transform="translate(0.000000,1024.000000) scale(0.100000,-0.100000)"
fill="#000000" stroke="none">
<path d="M4978 8703 c12 -2 30 -2 40 0 9 3 -1 5 -23 4 -22 0 -30 -2 -17 -4z"/>
<path d="M5167 8703 c18 -2 50 -2 70 0 21 2 7 4 -32 4 -38 0 -55 -2 -38 -4z"/>
<path d="M5198 8393 c7 -3 16 -2 19 1 4 3 -2 6 -13 5 -11 0 -14 -3 -6 -6z"/>
<path d="M5063 7973 c9 -2 25 -2 35 0 9 3 1 5 -18 5 -19 0 -27 -2 -17 -5z"/>
<path d="M3379 7903 c-13 -16 -12 -17 4 -4 9 7 17 15 17 17 0 8 -8 3 -21 -13z"/>
<path d="M3789 7883 l-24 -28 28 24 c25 23 32 31 24 31 -2 0 -14 -12 -28 -27z"/>
<path d="M5490 7836 c0 -2 8 -10 18 -17 15 -13 16 -12 3 4 -13 16 -21 21 -21
13z"/>
<path d="M3699 7793 l-34 -38 38 34 c20 19 37 36 37 38 0 8 -8 0 -41 -34z"/>
<path d="M4544 7315 c0 -49 1 -71 3 -48 2 23 2 64 0 90 -2 26 -3 8 -3 -42z"/>
<path d="M4542 7170 c0 -19 2 -27 5 -17 2 9 2 25 0 35 -3 9 -5 1 -5 -18z"/>
<path d="M4542 7090 c0 -19 2 -27 5 -17 2 9 2 25 0 35 -3 9 -5 1 -5 -18z"/>
<path d="M2931 6944 c0 -11 3 -14 6 -6 3 7 2 16 -1 19 -3 4 -6 -2 -5 -13z"/>
<path d="M3241 6934 c0 -11 3 -14 6 -6 3 7 2 16 -1 19 -3 4 -6 -2 -5 -13z"/>
<path d="M2922 6880 c0 -14 2 -19 5 -12 2 6 2 18 0 25 -3 6 -5 1 -5 -13z"/>
<path d="M3221 6844 c0 -11 3 -14 6 -6 3 7 2 16 -1 19 -3 4 -6 -2 -5 -13z"/>
<path d="M4466 6843 c-6 -14 -5 -15 5 -6 7 7 10 15 7 18 -3 3 -9 -2 -12 -12z"/>
<path d="M2912 6830 c0 -14 2 -19 5 -12 2 6 2 18 0 25 -3 6 -5 1 -5 -13z"/>
<path d="M7022 6830 c0 -14 2 -19 5 -12 2 6 2 18 0 25 -3 6 -5 1 -5 -13z"/>
<path d="M5093 6833 c15 -2 37 -2 50 0 12 2 0 4 -28 4 -27 0 -38 -2 -22 -4z"/>
<path d="M5198 6823 c7 -3 16 -2 19 1 4 3 -2 6 -13 5 -11 0 -14 -3 -6 -6z"/>
<path d="M3212 6785 c0 -16 2 -22 5 -12 2 9 2 23 0 30 -3 6 -5 -1 -5 -18z"/>
<path d="M7032 6770 c0 -14 2 -19 5 -12 2 6 2 18 0 25 -3 6 -5 1 -5 -13z"/>
<path d="M7341 6764 c0 -11 3 -14 6 -6 3 7 2 16 -1 19 -3 4 -6 -2 -5 -13z"/>
<path d="M2902 6740 c0 -19 2 -27 5 -17 2 9 2 25 0 35 -3 9 -5 1 -5 -18z"/>
<path d="M4360 6705 c-24 -25 -42 -45 -39 -45 3 0 25 20 49 45 24 25 42 45 39
45 -3 0 -25 -20 -49 -45z"/>
<path d="M5405 6710 c21 -22 41 -40 44 -40 3 0 -13 18 -34 40 -21 22 -41 40
-44 40 -3 0 13 -18 34 -40z"/>
<path d="M3202 6715 c0 -16 2 -22 5 -12 2 9 2 23 0 30 -3 6 -5 -1 -5 -18z"/>
<path d="M5865 6700 c21 -22 41 -40 44 -40 3 0 -13 18 -34 40 -21 22 -41 40
-44 40 -3 0 13 -18 34 -40z"/>
<path d="M4819 6703 l-24 -28 28 24 c25 23 32 31 24 31 -2 0 -14 -12 -28 -27z"/>
<path d="M2894 6500 c0 -96 2 -136 3 -87 2 48 2 126 0 175 -1 48 -3 8 -3 -88z"/>
<path d="M3194 6485 c0 -99 2 -138 3 -87 2 51 2 132 0 180 -1 48 -3 6 -3 -93z"/>
<path d="M7354 6485 c0 -99 2 -138 3 -87 2 51 2 132 0 180 -1 48 -3 6 -3 -93z"/>
<path d="M4220 6600 c-9 -6 -10 -10 -3 -10 6 0 15 5 18 10 8 12 4 12 -15 0z"/>
<path d="M7054 6470 c0 -80 2 -112 3 -72 2 39 2 105 0 145 -1 39 -3 7 -3 -73z"/>
<path d="M4075 6540 c-3 -6 1 -7 9 -4 18 7 21 14 7 14 -6 0 -13 -4 -16 -10z"/>
<path d="M6200 6516 c0 -2 7 -7 16 -10 8 -3 12 -2 9 4 -6 10 -25 14 -25 6z"/>
<path d="M3939 6463 c-13 -16 -12 -17 4 -4 9 7 17 15 17 17 0 8 -8 3 -21 -13z"/>
<path d="M4703 6405 c0 -38 2 -53 4 -32 2 20 2 52 0 70 -2 17 -4 1 -4 -38z"/>
<path d="M6290 6466 c0 -2 8 -10 18 -17 15 -13 16 -12 3 4 -13 16 -21 21 -21
13z"/>
<path d="M5532 6425 c0 -16 2 -22 5 -12 2 9 2 23 0 30 -3 6 -5 -1 -5 -18z"/>
<path d="M3869 6403 l-34 -38 38 34 c20 19 37 36 37 38 0 8 -8 0 -41 -34z"/>
<path d="M6350 6417 c0 -2 15 -16 33 -33 l32 -29 -29 33 c-28 30 -36 37 -36
29z"/>
<path d="M3807 6328 c-23 -31 -56 -89 -44 -78 10 9 76 110 72 110 -2 0 -15
-15 -28 -32z"/>
<path d="M6450 6290 c6 -11 13 -20 16 -20 2 0 0 9 -6 20 -6 11 -13 20 -16 20
-2 0 0 -9 6 -20z"/>
<path d="M5511 6284 c0 -11 3 -14 6 -6 3 7 2 16 -1 19 -3 4 -6 -2 -5 -13z"/>
<path d="M7042 6270 c0 -14 2 -19 5 -12 2 6 2 18 0 25 -3 6 -5 1 -5 -13z"/>
<path d="M2903 6245 c0 -22 2 -30 4 -17 2 12 2 30 0 40 -3 9 -5 -1 -4 -23z"/>
<path d="M3202 6235 c0 -16 2 -22 5 -12 2 9 2 23 0 30 -3 6 -5 -1 -5 -18z"/>
<path d="M5496 6245 c-9 -26 -7 -32 5 -12 6 10 9 21 6 23 -2 3 -7 -2 -11 -11z"/>
<path d="M4730 6245 c0 -35 114 -180 163 -207 12 -6 -6 14 -39 45 -33 31 -75
82 -92 114 -17 32 -32 54 -32 48z"/>
<path d="M7341 6224 c0 -11 3 -14 6 -6 3 7 2 16 -1 19 -3 4 -6 -2 -5 -13z"/>
<path d="M3736 6205 c-9 -26 -7 -32 5 -12 6 10 9 21 6 23 -2 3 -7 -2 -11 -11z"/>
<path d="M7032 6180 c0 -14 2 -19 5 -12 2 6 2 18 0 25 -3 6 -5 1 -5 -13z"/>
<path d="M2912 6160 c0 -19 2 -27 5 -17 2 9 2 25 0 35 -3 9 -5 1 -5 -18z"/>
<path d="M3212 6165 c0 -16 2 -22 5 -12 2 9 2 23 0 30 -3 6 -5 -1 -5 -18z"/>
<path d="M3715 6140 c-4 -17 -5 -34 -2 -36 2 -3 7 10 11 27 8 42 0 50 -9 9z"/>
<path d="M5449 6153 c-13 -16 -12 -17 4 -4 9 7 17 15 17 17 0 8 -8 3 -21 -13z"/>
<path d="M7331 6154 c0 -11 3 -14 6 -6 3 7 2 16 -1 19 -3 4 -6 -2 -5 -13z"/>
<path d="M5395 6088 l-40 -43 43 40 c39 36 47 45 39 45 -2 0 -21 -19 -42 -42z"/>
<path d="M7021 6114 c0 -11 3 -14 6 -6 3 7 2 16 -1 19 -3 4 -6 -2 -5 -13z"/>
<path d="M3222 6105 c0 -11 4 -33 8 -50 7 -27 8 -27 8 -5 0 14 -4 36 -8 50 -6
20 -8 21 -8 5z"/>
<path d="M2922 6085 c0 -16 2 -22 5 -12 2 9 2 23 0 30 -3 6 -5 -1 -5 -18z"/>
<path d="M7321 6084 c0 -11 3 -14 6 -6 3 7 2 16 -1 19 -3 4 -6 -2 -5 -13z"/>
<path d="M3703 6040 c0 -25 2 -35 4 -22 2 12 2 32 0 45 -2 12 -4 2 -4 -23z"/>
<path d="M7011 6064 c0 -11 3 -14 6 -6 3 7 2 16 -1 19 -3 4 -6 -2 -5 -13z"/>
<path d="M6533 6025 c0 -22 2 -30 4 -17 2 12 2 30 0 40 -3 9 -5 -1 -4 -23z"/>
<path d="M2932 6030 c0 -14 2 -19 5 -12 2 6 2 18 0 25 -3 6 -5 1 -5 -13z"/>
<path d="M4934 6016 c11 -9 24 -16 30 -16 12 0 7 5 -24 19 -24 11 -24 11 -6
-3z"/>
<path d="M5300 6020 c-9 -6 -10 -10 -3 -10 6 0 15 5 18 10 8 12 4 12 -15 0z"/>
<path d="M7001 6014 c0 -11 3 -14 6 -6 3 7 2 16 -1 19 -3 4 -6 -2 -5 -13z"/>
<path d="M3241 6004 c0 -11 3 -14 6 -6 3 7 2 16 -1 19 -3 4 -6 -2 -5 -13z"/>
<path d="M2942 5980 c0 -14 2 -19 5 -12 2 6 2 18 0 25 -3 6 -5 1 -5 -13z"/>
<path d="M5238 5993 c7 -3 16 -2 19 1 4 3 -2 6 -13 5 -11 0 -14 -3 -6 -6z"/>
<path d="M7302 5980 c0 -14 2 -19 5 -12 2 6 2 18 0 25 -3 6 -5 1 -5 -13z"/>
<path d="M5018 5983 c7 -3 16 -2 19 1 4 3 -2 6 -13 5 -11 0 -14 -3 -6 -6z"/>
<path d="M5198 5983 c7 -3 16 -2 19 1 4 3 -2 6 -13 5 -11 0 -14 -3 -6 -6z"/>
<path d="M3252 5965 c0 -11 3 -29 8 -40 11 -25 11 1 0 35 -6 20 -8 21 -8 5z"/>
<path d="M5077 5973 c18 -2 50 -2 70 0 21 2 7 4 -32 4 -38 0 -55 -2 -38 -4z"/>
<path d="M6533 5940 c0 -25 2 -35 4 -22 2 12 2 32 0 45 -2 12 -4 2 -4 -23z"/>
<path d="M7291 5934 c0 -11 3 -14 6 -6 3 7 2 16 -1 19 -3 4 -6 -2 -5 -13z"/>
<path d="M2951 5924 c0 -11 3 -14 6 -6 3 7 2 16 -1 19 -3 4 -6 -2 -5 -13z"/>
<path d="M3702 5910 c0 -19 2 -27 5 -17 2 9 2 25 0 35 -3 9 -5 1 -5 -18z"/>
<path d="M2961 5884 c0 -11 3 -14 6 -6 3 7 2 16 -1 19 -3 4 -6 -2 -5 -13z"/>
<path d="M3270 5893 c0 -16 61 -185 66 -180 2 2 -12 46 -31 98 -19 52 -34 89
-35 82z"/>
<path d="M6522 5860 c0 -14 2 -19 5 -12 2 6 2 18 0 25 -3 6 -5 1 -5 -13z"/>
<path d="M3711 5853 c-1 -12 10 -52 23 -87 90 -249 311 -414 556 -415 157 -1
264 38 432 156 53 37 104 74 115 81 15 10 14 11 -7 1 -14 -7 -44 -25 -68 -41
-23 -16 -47 -26 -54 -22 -6 4 -8 3 -5 -3 17 -27 -165 -126 -268 -148 -131 -28
-258 -15 -373 35 -25 11 -42 23 -39 27 4 3 12 1 19 -4 7 -6 45 -20 83 -33 94
-30 201 -36 294 -16 82 17 206 71 197 85 -3 5 2 8 11 7 11 0 18 6 18 19 0 15
-8 21 -32 23 -21 2 -33 9 -33 18 0 17 -16 19 -26 2 -4 -7 -3 -8 4 -4 7 4 12 2
12 -4 0 -6 -8 -10 -17 -8 -10 1 -24 -1 -30 -5 -8 -5 -13 -4 -13 2 0 6 -7 11
-15 11 -8 0 -15 8 -16 18 0 13 -2 14 -6 2 -10 -26 -36 -39 -56 -29 -9 6 -15
15 -11 21 4 5 -5 3 -19 -7 -16 -10 -27 -12 -31 -6 -4 6 -13 8 -21 4 -11 -4
-15 2 -15 21 0 14 6 26 13 26 7 0 5 5 -5 10 -21 13 -45 4 -51 -20 -3 -12 2
-20 14 -23 11 -3 19 -11 19 -19 0 -11 -2 -10 -9 1 -5 7 -14 10 -20 7 -6 -4
-11 -2 -11 5 0 7 -9 5 -22 -7 l-23 -19 18 22 c11 13 14 23 8 27 -6 4 -8 13 -4
21 6 18 -24 20 -47 4 -13 -9 -12 -10 2 -5 11 3 22 -2 28 -14 11 -21 7 -23 -25
-11 -12 5 -26 4 -35 -2 -8 -6 -12 -7 -8 -3 4 5 3 15 -3 23 -6 7 -8 13 -3 13
11 0 -18 20 -29 20 -5 0 -5 -5 -1 -11 4 -8 0 -8 -15 0 -31 17 -26 -1 7 -21 20
-13 22 -18 10 -18 -10 0 -18 5 -18 12 0 6 -3 9 -6 5 -5 -5 -44 27 -44 37 0 2
11 3 25 2 14 -2 30 3 36 10 9 11 7 14 -9 14 -12 0 -24 -5 -27 -10 -4 -6 -11
-8 -16 -4 -5 3 -7 9 -4 14 3 5 1 11 -4 14 -5 4 -13 1 -17 -5 -5 -8 -3 -9 6 -4
9 5 11 4 6 -3 -10 -16 -12 -15 -36 10 -19 21 -51 34 -48 20 1 -4 -2 -18 -6
-31 -6 -18 -10 -21 -17 -10 -7 11 -9 10 -9 -3 0 -20 -25 -24 -36 -6 -5 7 -2 9
9 5 11 -4 14 -2 10 9 -6 16 -19 18 -27 5 -3 -5 -15 -7 -26 -4 -12 3 -20 0 -20
-6 0 -7 6 -9 13 -6 6 4 3 -1 -8 -10 -19 -15 -21 -14 -37 6 -19 23 -24 44 -8
34 6 -3 7 1 3 10 -4 13 -8 14 -14 4 -6 -11 -9 -10 -14 3 -4 10 -3 22 1 29 4 8
3 9 -4 5 -13 -8 -35 40 -57 119 -8 28 -14 40 -14 28z m309 -230 c0 -7 -4 -13
-10 -13 -5 0 -9 3 -9 8 3 20 -2 33 -11 27 -6 -4 -8 -11 -5 -16 4 -5 1 -9 -4
-9 -14 0 -14 6 0 32 11 21 12 21 25 3 8 -10 14 -25 14 -32z m22 -38 c-6 -34
-13 -32 -10 4 1 16 5 28 9 26 3 -3 4 -16 1 -30z m-172 3 c0 -9 3 -9 9 1 8 12
11 12 24 0 13 -12 13 -16 -1 -33 -10 -11 -11 -16 -4 -12 7 4 12 1 12 -8 0 -9
3 -16 8 -16 4 0 27 -18 52 -41 28 -25 35 -36 20 -28 -29 15 -128 106 -141 131
-7 14 -6 18 6 18 8 0 15 -6 15 -12z m195 -8 c3 -5 1 -10 -4 -10 -6 0 -11 5
-11 10 0 6 2 10 4 10 3 0 8 -4 11 -10z m245 -4 c0 -3 -4 -8 -10 -11 -5 -3 -10
-1 -10 4 0 6 5 11 10 11 6 0 10 -2 10 -4z m65 -86 c3 -5 1 -10 -4 -10 -6 0
-11 5 -11 10 0 6 2 10 4 10 3 0 8 -4 11 -10z"/>
<path d="M7271 5854 c0 -11 3 -14 6 -6 3 7 2 16 -1 19 -3 4 -6 -2 -5 -13z"/>
<path d="M2982 5820 c0 -8 6 -31 13 -50 7 -19 13 -28 13 -20 0 8 -6 31 -13 50
-7 19 -13 28 -13 20z"/>
<path d="M6486 5745 c-9 -26 -7 -32 5 -12 6 10 9 21 6 23 -2 3 -7 -2 -11 -11z"/>
<path d="M6916 5745 c-9 -26 -7 -32 5 -12 6 10 9 21 6 23 -2 3 -7 -2 -11 -11z"/>
<path d="M4050 5706 c0 -2 7 -7 16 -10 8 -3 12 -2 9 4 -6 10 -25 14 -25 6z"/>
<path d="M6466 5693 c-6 -14 -5 -15 5 -6 7 7 10 15 7 18 -3 3 -9 -2 -12 -12z"/>
<path d="M3340 5698 c0 -15 69 -156 108 -220 26 -42 39 -74 36 -85 -5 -14 -4
-15 4 -4 7 9 11 10 17 2 4 -7 1 -19 -7 -28 -11 -14 -11 -16 1 -8 10 5 12 4 7
-4 -5 -7 -12 -9 -19 -3 -7 5 -24 12 -39 16 -16 3 -28 13 -28 20 0 23 -25 25
-51 5 -20 -16 -21 -18 -4 -13 16 5 17 4 5 -4 -9 -7 -19 -7 -25 -2 -7 6 -15 6
-21 1 -11 -11 -54 4 -54 20 0 7 -10 9 -27 5 -20 -5 -24 -4 -14 3 21 13 23 41
3 34 -9 -4 -13 -2 -9 4 3 5 0 10 -7 10 -9 0 -13 -14 -13 -41 -1 -69 -2 -73
-14 -53 -8 13 -7 23 3 35 11 15 11 15 -3 5 -20 -16 -30 -6 -23 21 3 12 -2 30
-11 41 -16 20 -16 20 -6 -2 6 -12 11 -28 10 -35 0 -7 -25 37 -55 97 -29 61
-53 105 -54 99 0 -24 135 -280 200 -378 95 -142 152 -212 268 -330 300 -306
663 -507 1083 -600 207 -45 263 -51 524 -50 212 0 269 3 375 22 451 78 826
261 1160 563 84 76 242 255 286 325 21 33 21 35 2 10 -89 -114 -170 -206 -180
-203 -7 1 -13 -4 -14 -10 -1 -7 -2 -17 -3 -22 -1 -11 -183 -172 -188 -167 -3
2 14 21 36 41 23 21 41 44 41 52 0 8 4 12 10 8 5 -3 24 8 42 24 27 24 31 32
20 43 -11 11 -12 10 -6 -6 6 -16 3 -18 -24 -14 -17 2 -29 1 -26 -4 3 -4 0 -8
-5 -8 -6 0 -11 8 -11 18 -1 16 -1 16 -11 -1 -10 -17 -12 -17 -36 -2 -14 10
-23 12 -19 7 3 -6 2 -13 -4 -17 -6 -4 -10 4 -10 18 0 28 -22 41 -39 24 -9 -9
-11 -8 -6 4 4 10 0 16 -10 16 -8 0 -15 -3 -15 -7 0 -3 -18 -6 -41 -7 -22 0
-46 -6 -52 -12 -14 -14 -40 -15 -32 -1 3 6 -1 7 -9 4 -9 -3 -13 -10 -10 -15 3
-5 2 -9 -3 -8 -4 1 -16 -1 -25 -5 -14 -6 -16 -12 -7 -29 9 -20 9 -21 -4 -4
-13 16 -16 16 -30 2 -9 -8 -18 -15 -21 -15 -3 0 -29 -17 -58 -37 -69 -50 -94
-64 -228 -129 -131 -63 -349 -138 -430 -148 -38 -4 -14 4 75 28 139 38 281 88
299 107 6 6 -7 3 -29 -6 -22 -10 -92 -35 -155 -56 -526 -174 -1089 -117 -1580
160 -30 17 -44 23 -32 14 13 -10 63 -39 110 -65 93 -51 105 -65 19 -22 -90 45
-211 121 -292 183 -43 33 -83 57 -88 54 -6 -3 -7 -1 -3 5 3 6 -2 15 -11 21
-10 5 -15 12 -12 15 3 3 30 -15 59 -40 48 -41 140 -107 180 -129 26 -14 -2 9
-60 50 -164 115 -341 284 -450 430 -88 118 -113 159 -177 285 -29 58 -52 102
-53 98z m65 -317 c3 -5 2 -12 -3 -15 -5 -3 -9 1 -9 9 0 17 3 19 12 6z m171
-91 c27 -36 96 -113 155 -172 59 -60 104 -108 100 -108 -3 0 -36 29 -72 65
-37 35 -70 61 -74 57 -5 -4 -5 -2 -2 4 4 7 -13 30 -38 52 -25 22 -45 43 -45
47 0 12 -47 64 -54 59 -3 -2 -4 -1 -1 3 3 3 -5 22 -17 42 -28 47 -13 32 48
-49z m-350 34 c-4 -9 2 -14 15 -14 13 0 18 4 13 12 -5 7 -3 8 6 3 10 -6 10
-11 -3 -20 -21 -15 -21 -19 1 -41 9 -10 17 -21 17 -25 0 -18 47 -69 57 -63 7
5 9 2 5 -9 -12 -31 170 -241 316 -365 128 -108 193 -155 326 -234 63 -37 110
-68 105 -68 -5 0 -57 29 -116 64 -212 127 -391 278 -547 461 -100 117 -226
299 -216 315 9 15 27 1 21 -16z m248 10 c4 -9 4 -19 1 -22 -3 -3 -5 0 -5 7 0
7 -4 10 -8 7 -5 -3 -9 1 -9 9 0 20 13 19 21 -1z m-64 -4 c0 -5 -5 -10 -11 -10
-5 0 -7 5 -4 10 3 6 8 10 11 10 2 0 4 -4 4 -10z m-125 -40 c3 -5 1 -10 -4 -10
-6 0 -11 5 -11 10 0 6 2 10 4 10 3 0 8 -4 11 -10z m3179 -345 c-7 -16 -24 -21
-24 -6 0 8 7 13 27 20 1 1 0 -6 -3 -14z m130 -34 c3 -5 -1 -11 -9 -14 -9 -4
-12 -1 -8 9 6 16 10 17 17 5z m-354 -76 c0 -8 -4 -15 -10 -15 -5 0 -7 7 -4 15
4 8 8 15 10 15 2 0 4 -7 4 -15z m310 -78 c-51 -41 -176 -130 -240 -171 -73
-46 -269 -146 -286 -146 -5 0 44 27 109 60 115 58 308 180 377 239 19 17 40
30 45 30 6 0 3 -5 -5 -12z m-2169 -81 c30 -14 49 -25 43 -25 -14 -1 -104 38
-104 44 0 8 5 6 61 -19z m121 -45 c29 -11 75 -26 103 -32 27 -7 44 -14 38 -16
-13 -5 -131 30 -178 51 -44 21 -23 19 37 -3z m253 -72 c13 -6 5 -6 -20 -2 -22
3 -49 10 -60 14 -13 6 -5 6 20 2 22 -3 49 -10 60 -14z m718 -6 c-7 -2 -19 -2
-25 0 -7 3 -2 5 12 5 14 0 19 -2 13 -5z m-368 -18 c88 0 198 3 245 7 73 6 79
5 40 -4 -60 -15 -501 -15 -560 -1 -40 10 -35 11 35 5 44 -4 152 -7 240 -7z
m-867 -94 c45 -19 80 -36 78 -38 -6 -6 -182 66 -202 83 -21 16 -29 19 124 -45z
m1752 -15 c-14 -7 -36 -16 -50 -20 -14 -3 -7 3 15 13 45 22 73 27 35 7z
m-1546 -57 c56 -17 106 -32 111 -34 6 -2 1 -4 -10 -4 -20 0 -227 66 -211 68 5
1 55 -13 110 -30z m1451 21 c-27 -12 -43 -12 -25 0 8 5 22 9 30 9 10 0 8 -3
-5 -9z m-60 -20 c-27 -12 -43 -12 -25 0 8 5 22 9 30 9 10 0 8 -3 -5 -9z m-84
-26 c-25 -8 -61 -16 -80 -19 -23 -3 -14 2 24 14 33 10 69 19 80 19 11 0 0 -6
-24 -14z m-1154 -20 c-3 -3 -12 -4 -19 -1 -8 3 -5 6 6 6 11 1 17 -2 13 -5z
m46 -11 c-7 -2 -19 -2 -25 0 -7 3 -2 5 12 5 14 0 19 -2 13 -5z m939 -8 c-30
-7 -81 -16 -115 -19 -51 -4 -45 -2 33 13 111 21 158 24 82 6z m-777 -14 c44
-6 94 -12 110 -14 20 -3 16 -4 -15 -5 -48 -2 -230 25 -240 35 -3 3 11 3 30 0
19 -3 71 -11 115 -16z m525 -22 c-25 -4 -115 -7 -200 -6 l-155 1 165 6 c251 9
242 9 190 -1z"/>
<path d="M3933 5665 c0 -8 4 -12 9 -9 5 3 6 10 3 15 -9 13 -12 11 -12 -6z"/>
<path d="M4070 5671 c0 -6 4 -13 10 -16 6 -3 7 1 4 9 -7 18 -14 21 -14 7z"/>
<path d="M7206 5665 c-9 -26 -7 -32 5 -12 6 10 9 21 6 23 -2 3 -7 -2 -11 -11z"/>
<path d="M3030 5665 c0 -5 5 -17 10 -25 5 -8 10 -10 10 -5 0 6 -5 17 -10 25
-5 8 -10 11 -10 5z"/>
<path d="M6833 5567 c-29 -56 -46 -93 -37 -82 19 24 97 176 92 180 -2 2 -27
-42 -55 -98z"/>
<path d="M4995 5653 c-41 -9 -116 -35 -112 -39 2 -2 24 3 49 11 25 9 74 20
109 24 55 7 57 8 19 9 -25 0 -54 -2 -65 -5z"/>
<path d="M5121 5656 c2 -2 38 -6 79 -8 42 -3 64 -2 50 2 -25 8 -137 13 -129 6z"/>
<path d="M4200 5626 c7 -7 13 -7 20 0 6 6 3 10 -10 10 -13 0 -16 -4 -10 -10z"/>
<path d="M5288 5633 c7 -3 16 -2 19 1 4 3 -2 6 -13 5 -11 0 -14 -3 -6 -6z"/>
<path d="M5380 5598 c36 -19 99 -58 140 -89 94 -69 149 -103 156 -96 3 3 -13
15 -36 27 -23 12 -74 45 -114 74 -81 60 -150 101 -186 111 -14 3 4 -9 40 -27z"/>
<path d="M7186 5615 c-9 -26 -7 -32 5 -12 6 10 9 21 6 23 -2 3 -7 -2 -11 -11z"/>
<path d="M4170 5601 c-13 -26 2 -35 18 -11 7 11 8 21 2 25 -5 3 -14 -3 -20
-14z"/>
<path d="M4405 5580 c3 -5 8 -10 11 -10 2 0 4 5 4 10 0 6 -5 10 -11 10 -5 0
-7 -4 -4 -10z"/>
<path d="M6350 5533 l-55 -58 58 55 c31 30 57 56 57 57 0 8 -10 -1 -60 -54z"/>
<path d="M4707 5563 c-10 -9 -9 -23 1 -23 5 0 9 7 9 15 0 17 -1 18 -10 8z"/>
<path d="M4340 5556 c0 -2 6 -9 14 -15 10 -8 16 -8 24 2 8 10 5 13 -14 15 -13
1 -24 0 -24 -2z"/>
<path d="M4425 5549 c-11 -17 1 -21 15 -4 8 9 8 15 2 15 -6 0 -14 -5 -17 -11z"/>
<path d="M4645 5550 c-3 -5 -1 -10 4 -10 6 0 11 5 11 10 0 6 -2 10 -4 10 -3 0
-8 -4 -11 -10z"/>
<path d="M7152 5535 c-17 -37 -14 -45 4 -12 9 16 14 31 11 33 -2 2 -9 -7 -15
-21z"/>
<path d="M3265 5510 c-4 -6 -11 -8 -16 -5 -15 10 -10 0 10 -17 17 -15 19 -14
19 8 0 26 -3 29 -13 14z"/>
<path d="M3155 5500 c3 -5 8 -10 11 -10 2 0 4 5 4 10 0 6 -5 10 -11 10 -5 0
-7 -4 -4 -10z"/>
<path d="M3245 5469 c-4 -6 -5 -12 -2 -15 2 -3 7 2 10 11 7 17 1 20 -8 4z"/>
<path d="M6269 5463 c-13 -16 -12 -17 4 -4 9 7 17 15 17 17 0 8 -8 3 -21 -13z"/>
<path d="M3278 5436 c5 -17 7 -18 10 -4 3 16 5 16 19 3 8 -8 18 -13 23 -10 5
3 11 1 15 -5 3 -6 0 -13 -9 -16 -8 -3 -17 -13 -20 -21 -6 -14 -4 -14 11 -2 10
8 24 21 31 29 8 8 11 9 7 3 -9 -18 3 -16 22 2 8 9 13 19 9 22 -3 4 -6 3 -6 -2
0 -4 -8 -1 -17 6 -11 10 -14 10 -9 2 4 -8 1 -13 -8 -13 -9 0 -16 5 -16 11 0 5
-4 7 -10 4 -5 -3 -16 -3 -22 2 -25 15 -36 11 -30 -11z"/>
<path d="M6760 5440 c-6 -11 -8 -20 -6 -20 3 0 10 9 16 20 6 11 8 20 6 20 -3
0 -10 -9 -16 -20z"/>
<path d="M6215 5433 c-16 -9 -55 -27 -85 -40 -30 -12 -48 -23 -40 -23 18 0
160 66 160 75 0 7 -1 7 -35 -12z"/>
<path d="M7085 5400 c-9 -16 -13 -30 -11 -30 3 0 12 14 21 30 9 17 13 30 11
30 -3 0 -12 -13 -21 -30z"/>
<path d="M3286 5394 c-4 -10 -1 -14 6 -12 15 5 23 28 10 28 -5 0 -13 -7 -16
-16z"/>
<path d="M3431 5394 c0 -11 3 -14 6 -6 3 7 2 16 -1 19 -3 4 -6 -2 -5 -13z"/>
<path d="M5700 5400 c8 -5 20 -10 25 -10 6 0 3 5 -5 10 -8 5 -19 10 -25 10 -5
0 -3 -5 5 -10z"/>
<path d="M5780 5374 c58 -19 203 -29 255 -16 32 8 25 9 -41 5 -70 -5 -119 0
-234 22 -14 3 -5 -2 20 -11z"/>
<path d="M6679 5323 c-23 -32 -36 -53 -28 -46 17 14 83 103 76 103 -3 0 -24
-26 -48 -57z"/>
<path d="M7042 5327 c-11 -19 -27 -47 -37 -63 l-17 -29 20 25 c24 29 66 100
59 100 -3 0 -14 -15 -25 -33z"/>
<path d="M6560 5179 c-146 -161 -337 -310 -527 -411 -107 -57 -127 -71 -62
-44 178 74 480 308 630 487 63 75 41 58 -41 -32z"/>
<path d="M5384 3381 c-45 -27 -64 -59 -64 -106 0 -49 29 -99 69 -120 56 -29
143 -13 185 34 24 26 32 107 14 141 -35 65 -139 91 -204 51z m141 -7 c17 -8
21 -12 10 -8 -47 13 -113 16 -136 5 -23 -11 -23 -11 -5 3 25 20 91 20 131 0z
m-170 -44 c-40 -78 0 -154 90 -169 41 -7 44 -9 17 -10 -47 -1 -100 26 -119 62
-17 34 -14 107 7 132 20 24 22 18 5 -15z m223 -5 c14 -30 15 -84 3 -104 -5 -8
-7 4 -4 32 4 34 1 54 -11 72 -9 14 -13 25 -8 25 5 0 14 -11 20 -25z m-27 -145
c-13 -11 -31 -20 -40 -19 -11 0 -10 3 5 9 12 5 25 13 29 19 3 6 12 11 18 11 7
-1 1 -10 -12 -20z"/>
<path d="M1800 2661 l0 -691 121 0 c114 0 120 1 114 19 -10 33 -8 482 2 492 5
5 69 8 148 7 l139 -3 71 -125 c40 -69 105 -185 146 -257 l74 -133 128 0 c70 0
127 3 127 6 0 6 -212 374 -291 507 -16 26 -29 49 -29 51 0 2 12 6 28 9 15 3
36 13 47 22 19 16 19 16 -5 5 l-25 -11 23 18 c97 74 141 131 167 216 8 23 14
33 14 22 1 -37 -48 -125 -101 -182 -38 -41 -44 -51 -22 -35 102 71 163 243
143 405 -20 166 -115 275 -284 325 -39 11 -128 16 -392 19 l-343 5 0 -691z
m751 651 c67 -22 136 -65 177 -111 28 -31 55 -81 49 -88 -3 -2 -13 11 -22 31
-22 46 -95 113 -152 138 -86 38 -181 47 -491 48 l-292 0 2 -675 c2 -371 0
-675 -4 -675 -5 0 -8 306 -8 681 l0 681 338 -4 c312 -4 342 -6 403 -26z m-118
-153 c26 -6 50 -15 53 -20 7 -12 4 -12 -46 6 -31 11 -93 15 -234 17 -137 1
-167 3 -106 7 118 8 276 3 333 -10z m3 -24 c91 -27 144 -106 144 -215 0 -104
-43 -172 -135 -216 -47 -22 -62 -24 -231 -24 -149 0 -184 3 -194 15 -9 10 -9
15 -1 15 8 0 11 63 11 218 0 144 -4 212 -10 202 -5 -8 -10 -10 -10 -4 0 6 3
14 7 17 3 4 88 7 188 7 131 0 195 -4 231 -15z m154 -126 c39 -145 -19 -275
-147 -330 -39 -17 -67 -19 -236 -17 l-192 2 200 6 c129 3 211 10 230 18 91 40
145 123 145 226 0 78 -16 127 -58 179 l-34 42 41 -44 c22 -24 46 -61 51 -82z
m222 -31 c2 -21 0 -38 -4 -38 -4 0 -7 24 -7 53 1 54 5 49 11 -15z m-5 -110
c-2 -13 -4 -3 -4 22 0 25 2 35 4 23 2 -13 2 -33 0 -45z m-220 -314 c-3 -3 -12
-4 -19 -1 -8 3 -5 6 6 6 11 1 17 -2 13 -5z m-344 -51 c-40 -2 -106 -2 -145 0
-40 1 -8 3 72 3 80 0 112 -2 73 -3z m109 -30 c37 -56 101 -173 94 -173 -2 0
-24 35 -48 78 -24 42 -52 89 -62 105 -10 15 -16 27 -13 27 2 0 15 -17 29 -37z
m381 -273 c60 -101 59 -100 54 -100 -9 0 -227 369 -227 384 0 6 27 -37 61 -95
34 -57 84 -142 112 -189z m-244 33 c17 -31 29 -58 27 -60 -1 -2 -17 24 -35 57
-18 33 -30 60 -27 60 2 0 18 -26 35 -57z m71 -125 c0 -17 -10 -6 -25 25 l-16
32 20 -25 c11 -14 21 -28 21 -32z m51 -93 c14 -29 15 -34 4 -20 -9 11 -25 38
-36 60 -14 29 -15 34 -4 20 9 -11 25 -38 36 -60z m223 13 l27 -48 -33 1 c-23
1 -26 3 -11 6 l23 4 -20 39 c-11 22 -20 42 -20 46 0 10 2 7 34 -48z"/>
<path d="M4838 3113 c-3 -197 -5 -238 -17 -238 -8 0 -16 7 -18 15 -4 13 -3 13
6 0 6 -8 11 -10 11 -4 0 17 -62 61 -126 91 -69 31 -194 42 -275 23 -223 -52
-352 -253 -347 -540 l2 -85 6 85 6 85 2 -75 c1 -41 4 -93 7 -115 4 -35 3 -36
-4 -10 -8 27 -9 28 -9 5 0 -14 4 -36 8 -50 7 -21 8 -22 10 -5 l1 20 8 -20 c4
-11 11 -33 14 -50 l6 -30 -14 30 c-8 17 -14 23 -15 15 0 -30 58 -136 104 -187
52 -58 146 -110 211 -118 l40 -5 -40 15 c-30 11 -32 13 -10 9 17 -3 75 -10
130 -14 87 -7 106 -6 152 12 54 20 153 90 153 108 0 6 5 10 10 10 6 0 11 -15
11 -32 l1 -33 8 30 c8 30 8 30 9 -8 1 -28 -2 -36 -11 -31 -7 4 -4 -3 7 -16 11
-13 14 -20 8 -16 -7 4 -13 2 -13 -3 0 -7 38 -11 106 -11 l107 0 -7 53 c-3 28
-6 339 -6 690 l0 637 -115 0 -115 0 -2 -237z m218 202 c1 -14 -2 -22 -7 -19
-5 3 -9 12 -9 20 0 11 -18 14 -90 14 l-90 0 -3 -227 -2 -228 -3 233 -2 232
103 0 c102 0 102 0 103 -25z m1 -132 c0 -32 -2 -41 -7 -28 -4 11 -6 27 -4 35
1 8 3 21 3 28 1 6 3 12 5 12 2 0 3 -21 3 -47z m-389 -203 c43 -16 36 -23 -9
-9 -19 6 -74 15 -124 19 l-90 8 95 -3 c52 -2 110 -9 128 -15z m-238 0 c-8 -5
-26 -9 -40 -9 -23 0 -23 1 -5 9 11 5 29 9 40 9 17 1 17 -1 5 -9z m-116 -40
c-28 -16 -75 -55 -104 -87 -29 -32 -49 -51 -44 -42 28 52 155 159 188 159 6 0
-12 -13 -40 -30z m451 -16 l30 -26 -35 23 c-45 29 -45 29 -34 29 5 0 23 -12
39 -26z m292 -26 c-3 -8 -6 -5 -6 6 -1 11 2 17 5 13 3 -3 4 -12 1 -19z m-381
-82 c16 -8 25 -15 21 -16 -5 0 -17 5 -28 11 -11 6 -48 14 -82 19 l-62 9 61 -3
c34 -2 74 -11 90 -20z m-8 -18 c30 -11 70 -34 90 -50 32 -27 32 -25 -5 11 -44
43 -46 57 -3 18 33 -31 68 -72 53 -63 -17 10 -16 -5 2 -31 46 -66 59 -252 25
-354 -12 -34 -19 -63 -16 -66 2 -3 12 22 22 54 22 72 38 93 20 27 -15 -56 -33
-95 -44 -92 -4 1 -28 -19 -54 -45 -73 -71 -187 -96 -283 -62 -49 18 -48 18
-39 3 4 -8 3 -10 -2 -5 -5 5 -7 10 -4 12 7 4 -31 45 -43 45 -6 0 -4 -8 4 -18
8 -10 -4 1 -26 25 -33 34 -45 58 -59 115 -10 40 -16 89 -14 108 4 30 5 27 7
-15 1 -27 7 -59 12 -70 8 -16 8 -15 4 9 -10 49 -6 214 6 258 25 95 95 179 161
193 16 4 27 9 24 12 -3 3 -20 0 -38 -6 -30 -10 -31 -9 -14 4 26 19 140 10 214
-17z m-269 -30 c-19 -18 -42 -44 -52 -58 -17 -23 -17 -23 0 9 10 18 31 44 46
57 42 35 46 29 6 -8z m-249 -7 c-6 -12 -8 -27 -4 -33 4 -6 3 -8 -4 -4 -12 7
-18 -9 -37 -101 -7 -37 -14 -58 -14 -46 -2 54 51 225 65 210 3 -3 1 -15 -6
-26z m690 -105 c0 -12 -5 -7 -19 24 -11 24 -11 24 3 6 9 -11 16 -24 16 -30z
m-519 -3 c-12 -20 -14 -14 -5 12 4 9 9 14 11 11 3 -2 0 -13 -6 -23z m547 -173
l-1 -85 -7 95 c-4 52 -10 109 -13 125 -4 19 -2 16 7 -10 9 -23 14 -76 14 -125z
m-573 22 c-10 -56 -17 -29 -9 35 6 42 9 50 12 29 2 -16 1 -45 -3 -64z m763
-29 l-2 -98 -5 80 c-6 75 -4 115 5 115 2 0 3 -44 2 -97z m4 -320 c2 -84 0
-143 -4 -133 -7 18 -12 259 -7 325 2 28 3 27 5 -5 2 -19 5 -103 6 -187z m-262
69 c0 -11 -109 -92 -123 -92 -6 0 9 13 34 28 24 16 53 39 63 50 21 24 26 27
26 14z m-559 -159 c19 -17 56 -43 83 -57 27 -14 42 -26 34 -26 -47 0 -175 117
-217 197 -23 45 -10 34 28 -23 21 -32 54 -73 72 -91z m343 63 c58 0 73 -2 55
-9 -30 -11 -149 -4 -175 12 -16 9 -14 10 11 4 17 -5 66 -8 109 -7z m230 -59
c-3 -8 -17 -23 -32 -34 -52 -38 -57 -36 -12 5 51 47 51 47 44 29z m-159 -97
c-11 -5 -27 -9 -35 -9 -9 0 -8 4 5 9 11 5 27 9 35 9 9 0 8 -4 -5 -9z"/>
<path d="M4320 2311 c0 -16 40 -100 51 -107 5 -3 9 -4 9 -2 -1 10 -60 119 -60
109z"/>
<path d="M3436 3010 c5 -5 36 -11 69 -13 57 -4 57 -4 -12 -4 -42 0 -73 4 -73
10 0 16 -110 0 -176 -24 -108 -41 -204 -165 -204 -265 0 -23 2 -24 88 -24 57
0 93 4 101 13 10 8 12 8 7 0 -3 -6 -2 -14 3 -17 5 -3 12 11 16 31 13 70 84
113 185 113 99 0 173 -44 187 -112 7 -32 7 -33 15 -8 6 18 6 14 3 -15 -3 -22
-5 -54 -5 -71 l0 -30 -137 -15 c-115 -11 -130 -15 -88 -19 l50 -5 -70 -8 c-38
-4 -86 -10 -105 -12 -19 -2 -10 2 20 9 33 8 45 14 30 15 -71 3 -224 -57 -287
-112 -43 -38 -86 -120 -80 -155 4 -26 4 -26 6 3 1 17 6 37 12 45 9 13 10 13 6
-2 -3 -9 -9 -45 -14 -80 -6 -53 -8 -58 -14 -33 -5 21 -6 17 -3 -14 2 -24 9
-61 16 -82 12 -41 72 -119 90 -119 6 0 -4 14 -21 31 -35 33 -71 101 -70 134 0
11 8 -4 18 -33 10 -30 34 -70 54 -90 20 -20 35 -41 34 -47 -1 -5 25 -21 58
-35 52 -21 76 -24 175 -25 96 0 124 4 172 23 57 23 154 90 144 99 -3 3 -24
-11 -47 -31 -64 -55 -137 -79 -249 -82 l-95 -2 95 8 c112 9 190 36 247 85 50
43 73 45 74 8 l1 -28 9 25 c6 17 7 8 3 -27 l-6 -53 106 0 106 0 -1 33 c-2 30
-2 30 -6 5 -3 -18 -10 -28 -21 -27 -11 0 -12 2 -4 6 9 3 11 23 8 66 -2 42 -2
49 3 22 6 -37 5 341 -2 575 -3 90 -8 114 -32 168 -43 95 -120 156 -230 180
-67 15 -170 23 -159 12z m-94 -25 c-78 -17 -157 -54 -199 -92 -35 -31 -72
-104 -75 -147 -1 -14 -6 -26 -10 -26 -25 0 34 140 74 176 67 59 169 103 243
102 18 0 4 -5 -33 -13z m335 -26 c66 -32 117 -87 141 -152 12 -32 22 -65 22
-75 0 -9 -11 15 -25 53 -30 87 -91 149 -181 183 -32 12 -45 20 -29 17 17 -4
49 -15 72 -26z m-162 -118 c12 -5 -9 -7 -50 -4 -91 6 -105 11 -30 12 33 0 69
-4 80 -8z m-146 -5 c-2 -1 -20 -8 -39 -14 -32 -11 -33 -10 -16 3 16 12 69 23
55 11z m214 -25 c29 -19 62 -59 55 -67 -3 -2 -10 7 -17 20 -7 13 -29 33 -49
44 -21 12 -32 22 -27 22 6 0 23 -8 38 -19z m-329 -59 c-19 -39 -27 -42 -13 -6
12 34 20 46 25 41 2 -2 -3 -18 -12 -35z m-81 -49 c-24 -2 -62 -2 -85 0 -24 2
-5 4 42 4 47 0 66 -2 43 -4z m674 -405 c-1 -79 -3 -17 -3 137 0 154 2 218 3
143 2 -75 2 -201 0 -280z m-190 350 c-3 -8 -6 -5 -6 6 -1 11 2 17 5 13 3 -3 4
-12 1 -19z m-28 -72 c-2 -2 -35 -6 -74 -9 -45 -3 -58 -3 -35 2 37 9 116 14
109 7z m-429 -66 c-8 -5 -19 -10 -25 -10 -5 0 -3 5 5 10 8 5 20 10 25 10 6 0
3 -5 -5 -10z m-70 -31 c-19 -12 -47 -33 -62 -47 -15 -14 -30 -23 -33 -20 -6 6
104 88 119 88 6 0 -5 -10 -24 -21z m497 -35 c-3 -3 -12 -4 -19 -1 -8 3 -5 6 6
6 11 1 17 -2 13 -5z m7 -15 c2 -2 6 -40 8 -84 3 -44 2 -71 -2 -60 -5 16 -8 13
-13 -15 -5 -21 -23 -49 -50 -75 -89 -84 -266 -99 -343 -28 -14 13 -24 18 -22
11 3 -7 19 -23 38 -35 18 -13 28 -23 22 -23 -6 0 -24 11 -40 25 -28 24 -29 28
-29 110 l0 86 36 30 c25 21 43 29 61 26 14 -3 54 1 90 8 36 7 54 14 40 15 -24
2 -24 3 5 11 28 7 192 6 199 -2z m-239 -9 c-3 -5 -18 -9 -33 -9 l-27 1 30 8
c17 4 31 8 33 9 2 0 0 -3 -3 -9z m-375 -40 c-6 -11 -13 -20 -16 -20 -2 0 0 9
6 20 6 11 13 20 16 20 2 0 0 -9 -6 -20z m637 -27 c-3 -10 -5 -2 -5 17 0 19 2
27 5 18 2 -10 2 -26 0 -35z m-470 -115 c-2 -13 -4 -5 -4 17 -1 22 1 32 4 23 2
-10 2 -28 0 -40z m413 -53 c-56 -60 -197 -100 -278 -79 -25 7 -12 9 55 9 76 0
96 4 144 27 31 16 64 37 74 48 10 11 20 20 23 20 3 0 -5 -11 -18 -25z m-377
-216 c17 -1 18 -2 4 -6 -19 -5 -114 24 -122 37 -3 4 18 0 45 -11 28 -10 60
-20 73 -20z"/>
<path d="M3487 2423 c18 -2 50 -2 70 0 21 2 7 4 -32 4 -38 0 -55 -2 -38 -4z"/>
<path d="M3250 2368 c-19 -13 -36 -30 -38 -38 -3 -10 3 -9 19 6 13 11 35 28
49 37 13 10 20 17 14 17 -6 0 -26 -10 -44 -22z"/>
<path d="M7335 2988 c-46 -16 -73 -35 -117 -80 -54 -54 -78 -73 -62 -47 3 6 0
15 -7 20 -11 6 -11 11 -1 21 6 6 12 26 12 44 l0 31 -95 2 -95 2 -3 -503 -2
-503 -3 507 -2 507 103 4 102 3 -107 2 -108 2 0 -515 0 -515 115 0 115 0 0
323 c0 185 4 337 10 358 16 57 51 102 100 127 38 19 58 22 122 20 42 -2 76 -7
75 -12 -1 -5 4 -11 12 -14 10 -3 11 0 5 9 -6 11 -2 10 16 -2 14 -8 36 -38 50
-65 l25 -49 1 -345 0 -345 -5 345 c-6 343 -6 345 -31 395 -14 27 -32 51 -40
53 -10 3 -8 -3 6 -19 49 -54 54 -95 54 -449 l0 -330 110 0 110 0 -2 303 -3
302 -5 -290 -5 -290 -2 285 c-1 157 2 303 6 325 l9 40 2 -35 c3 -34 3 -34 7
-5 16 121 97 194 216 195 63 0 87 -9 129 -47 14 -14 30 -23 34 -21 5 1 16 -10
24 -27 12 -25 15 -88 15 -380 l1 -350 -6 350 c-3 252 -9 358 -18 379 -18 42
-24 27 -7 -19 11 -31 14 -113 15 -377 l0 -338 115 0 115 0 0 363 c0 395 -6
449 -54 530 -33 57 -103 111 -170 132 -96 29 -243 13 -320 -35 -46 -28 -118
-110 -112 -127 6 -15 -10 -27 -25 -17 -8 5 -8 8 0 13 13 9 -39 85 -82 121 -75
61 -227 77 -342 38z m130 2 c-99 -6 -170 -32 -217 -77 -16 -15 -28 -22 -28
-16 0 15 70 61 126 83 35 14 72 19 129 18 l80 -1 -90 -7z m752 -6 c67 -22 137
-78 167 -133 40 -74 46 -148 44 -516 l-2 -340 -7 375 c-3 207 -11 392 -16 412
-36 127 -135 196 -298 208 l-90 7 77 1 c48 1 95 -4 125 -14z m-603 -8 c38 -16
102 -70 118 -100 6 -11 -11 2 -38 29 -28 29 -68 57 -94 67 -25 9 -39 17 -32
17 7 1 27 -5 46 -13z m343 -10 c-68 -28 -80 -36 -130 -90 -34 -36 -36 -37 -17
-8 12 17 36 43 53 57 37 28 115 65 137 65 8 0 -11 -11 -43 -24z m-577 -156
c-72 -8 -97 -16 -123 -38 -9 -8 -20 -13 -23 -9 -6 6 26 26 71 44 17 6 55 11
85 11 l55 -1 -65 -7z m731 -4 c19 -8 43 -24 54 -36 17 -20 15 -19 -19 4 -51
34 -73 39 -151 34 -36 -2 -59 0 -52 4 20 13 132 9 168 -6z m-207 -21 c-10 -8
-23 -14 -29 -14 -5 0 -1 6 9 14 11 8 24 15 30 15 5 0 1 -7 -10 -15z m-57 -53
c-9 -10 -23 -33 -31 -52 -8 -19 -15 -29 -16 -21 0 19 50 104 57 97 4 -3 -1
-14 -10 -24z m-629 -2 c-7 -11 -16 -20 -21 -20 -4 0 -3 9 3 20 6 11 15 20 20
20 6 0 5 -9 -2 -20z m-38 -81 c-6 -19 -10 -173 -10 -351 l0 -318 -22 1 c-17 1
-19 2 -5 6 16 4 17 28 17 316 0 190 4 327 11 350 6 22 12 37 15 35 2 -2 -1
-20 -6 -39z"/>
<path d="M5324 2987 c-3 -8 -3 -54 -1 -103 l3 -89 2 98 c1 53 5 97 10 97 4 0
6 -226 5 -502 -2 -332 -6 -502 -13 -501 -5 2 -10 -2 -10 -7 0 -6 45 -10 115
-10 l115 0 0 515 0 515 -110 0 c-83 0 -112 -3 -116 -13z m216 -504 c0 -278 -2
-504 -5 -501 -3 3 -5 228 -5 501 l0 496 -88 4 -87 3 93 2 92 2 0 -507z"/>
<path d="M5802 2608 c3 -388 3 -394 27 -453 32 -80 107 -155 184 -183 32 -12
68 -22 80 -21 12 0 -3 7 -33 15 -30 8 -59 19 -65 25 -5 5 10 2 35 -6 25 -9 83
-20 130 -23 l85 -7 -60 -6 -60 -6 55 0 c61 -1 136 13 90 16 -20 2 -15 5 20 17
56 17 75 17 35 -1 -16 -8 -24 -14 -16 -15 24 0 131 63 156 92 14 17 22 35 18
44 -5 13 -2 13 15 -2 16 -13 22 -29 21 -54 l-2 -35 -7 40 -7 40 -1 -35 c-3
-79 -2 -80 114 -80 l104 0 0 515 0 515 -116 0 -115 0 2 -350 c1 -193 -2 -354
-6 -358 -3 -4 -4 7 0 23 5 24 2 22 -11 -10 -10 -22 -26 -52 -36 -67 -64 -92
-252 -118 -334 -46 -70 61 -68 55 -74 448 l-5 355 -113 3 -113 3 3 -393z m23
372 c3 -5 1 -10 -4 -10 -6 0 -11 5 -11 10 0 6 2 10 4 10 3 0 8 -4 11 -10z
m194 -17 c0 -24 -1 -25 -8 -8 -7 17 -20 21 -92 26 l-84 5 93 2 92 2 -1 -27z
m689 -480 l-3 -508 -2 503 -3 502 -95 0 -95 0 -3 -312 -2 -313 -3 318 -2 317
105 0 105 0 -2 -507z m-875 -293 l8 -25 -13 25 c-9 19 -13 120 -13 400 l-1
375 6 -375 c4 -206 10 -386 13 -400z m184 693 c-3 -10 -5 -2 -5 17 0 19 2 27
5 18 2 -10 2 -26 0 -35z m3 -305 c-1 -192 3 -264 14 -300 8 -27 11 -46 6 -43
-18 11 -30 103 -31 246 -1 243 1 349 6 349 3 0 5 -114 5 -252z m460 -307 c0
-16 -89 -108 -110 -114 -29 -7 -25 -2 15 22 19 11 47 38 62 60 30 43 33 46 33
32z m-333 -118 c18 -7 43 -13 57 -13 14 0 28 -5 31 -10 4 -7 -3 -9 -22 -5 -63
14 -111 37 -139 67 l-29 32 35 -29 c19 -15 49 -34 67 -42z m-205 -118 c40 -36
41 -37 8 -18 -34 21 -110 116 -110 137 0 6 13 -10 29 -35 16 -25 49 -63 73
-84z m383 105 c-11 -5 -33 -8 -50 -8 -29 1 -29 1 5 8 49 10 69 10 45 0z m119
-91 c-16 -17 -42 -37 -59 -45 l-30 -14 25 17 c14 10 38 30 55 45 40 37 46 35
9 -3z"/>
<path d="M5323 2755 c0 -22 2 -30 4 -17 2 12 2 30 0 40 -3 9 -5 -1 -4 -23z"/>
<path d="M5324 2595 c0 -66 1 -92 3 -57 2 34 2 88 0 120 -2 31 -3 3 -3 -63z"/>
<path d="M5324 2240 c0 -91 2 -128 3 -82 2 45 2 119 0 165 -1 45 -3 8 -3 -83z"/>
<path d="M5323 2035 c0 -22 2 -30 4 -17 2 12 2 30 0 40 -3 9 -5 -1 -4 -23z"/>
<path d="M4487 1943 c18 -2 50 -2 70 0 21 2 7 4 -32 4 -38 0 -55 -2 -38 -4z"/>
</g>
</svg>
